<?xml version="1.0" encoding="UTF-8"?>
<svg width="161px" height="100px" viewBox="0 0 161 100" version="1.1" xmlns="http://www.w3.org/2000/svg" xmlns:xlink="http://www.w3.org/1999/xlink">
    <!-- Generator: Sketch 49.3 (51167) - http://www.bohemiancoding.com/sketch -->
    <title>Group</title>
    <desc>Created with Sketch.</desc>
    <defs></defs>
    <g id="Page-1" stroke="none" stroke-width="1" fill="none" fill-rule="evenodd" fill-opacity="0.800000012">
        <g id="Group" fill="#000000">
            <path d="M157,96 L157,4 L150,4 L150,0 L157,0 L161,0 L161,100 L157,100 L150,100 L150,96 L157,96 Z" id="Combined-Shape"></path>
            <path d="M4,100 L0,100 L0,0 L4,0 L11,0 L11,4 L4,4 L4,96 L11,96 L11,100 L4,100 Z" id="Combined-Shape"></path>
            <path d="M32.1799927,38.4837646 C32.2151491,38.1790756 32.3141172,37.1668735 32.3609924,36.493042 C32.4078677,35.8192105 32.46051,35.0340621 32.5132446,34.1375732 C32.5659793,33.2410844 32.6140745,32.2684379 32.6609497,31.2196045 C32.7078249,30.1707711 32.7562864,29.107305 32.8031616,28.0643311 C32.9086309,25.6151001 33.0292658,22.4279931 33.1347351,19.5100098 L38.465271,19.5100098 L43.0253296,32.8965454 L47.6022949,19.5100098 L52.8173828,19.5257568 C52.9462897,22.4437402 53.1093133,25.6326782 53.2382202,28.0819092 C53.2850954,29.1248831 53.3378293,30.1707711 53.3964233,31.2196045 C53.4550174,32.2684379 53.5029904,33.2410844 53.5615845,34.1375732 C53.6201785,35.0340621 53.6905515,35.8192105 53.7491455,36.493042 C53.8077396,37.1668735 53.9329832,38.1471542 53.9798584,38.4518433 L49.9214478,38.4518433 L49.468811,25.1445618 L44.8709717,38.4837646 L41.1879578,38.4837646 L36.5913391,25.1445618 L36.2235413,38.4837646 L32.1799927,38.4837646 Z M84.850769,23.036972 C83.7023258,23.036972 82.9364815,23.258741 82.1688995,23.7216339 C81.4013176,24.1845269 80.9675573,24.7464205 80.5813141,25.3951111 C80.1950708,26.0438017 79.8998423,26.8010204 79.7064819,27.7971191 C79.5131216,28.7932179 79.4224854,29.738276 79.4224854,30.7929688 C79.4224854,31.4726596 79.4833978,32.0226412 79.6181641,32.5910034 C79.7529304,33.1593656 79.9002674,33.5151346 80.1346436,33.9311523 C80.3690197,34.34717 80.6053619,34.5846558 80.8439178,34.7440186 C81.0824738,34.9033813 81.3083209,34.9495705 81.5800629,34.9414673 C81.8518049,34.9333641 82.0801697,34.8163452 82.4534149,34.5874481 C82.8266602,34.358551 83.1220683,34.0770896 83.5146484,33.6376343 C83.9072285,33.198179 84.2205639,32.7774077 84.5955658,32.203186 C84.9705677,31.6289644 85.321028,31.0138124 85.6491547,30.3751373 C85.9772813,29.7364623 86.2743516,29.0893282 86.555603,28.433075 C86.8368544,27.7768217 87.0119772,27.2978545 87.2111969,26.7060547 C87.4104166,26.1142549 87.5579676,25.6164423 87.6692963,25.1242523 C87.7806249,24.6320624 87.8192291,24.3417985 87.8192291,24.0253906 L87.8192291,23.2996216 C87.5262589,23.2410275 87.555911,23.2431645 86.9992676,23.1552734 C86.4426242,23.0673824 85.7296797,23.036972 84.850769,23.036972 Z M88.4036102,31.8615723 C88.189903,32.4292321 88.266299,32.3662058 87.744812,33.3974609 C87.223325,34.4287161 86.6756015,35.1780964 86.0076294,36.0159912 C85.3396573,36.853886 84.6300242,37.5181858 83.8272858,38.0513916 C83.0245474,38.5845974 81.8183639,38.9508667 80.9042969,38.9508667 C80.1660119,38.9508667 79.2212862,38.7048967 78.5767517,38.37677 C77.9322172,38.0486434 77.2573876,37.4227327 76.7827759,36.7781982 C76.3081641,36.1336638 75.8438429,35.1690416 75.5743103,34.2139587 C75.3047777,33.2588758 75.1640015,32.0351625 75.1640015,30.7929687 C75.1640015,29.3984305 75.346922,27.9794988 75.7219238,26.6494141 C76.0969257,25.3193293 76.7109642,23.982305 77.4844055,22.9451904 C78.2578469,21.9080759 79.3231752,20.903476 80.5184937,20.2765198 C81.7138121,19.6495635 83.3633036,19.2185974 85.0039368,19.2185974 C86.1406612,19.2185974 87.6545354,19.3074028 88.779541,19.4538879 C89.9045466,19.600373 91.1871599,19.887389 92.0777893,20.1217651 L92.0777893,28.7102356 C92.0777893,30.9250904 92.1831654,32.7080918 92.394104,34.2139587 C92.6050426,35.7198256 93.0812971,37.514964 93.4211426,38.4993439 L89.3230591,38.4993439 C89.1941522,38.2180925 88.9492192,37.582446 88.8496094,37.0199432 C88.7499995,36.4574404 88.6152347,35.5477938 88.5507812,34.8973999 C88.4863278,34.247006 88.4387667,33.646991 88.4036102,33.0258942 C88.3801726,32.6118296 88.3801726,32.2237223 88.4036102,31.8615723 Z M130.116089,23.118927 L123.518677,23.118927 L123.518677,38.4993439 L119.274109,38.4993439 L119.274109,23.118927 L112.680481,23.118927 L112.680481,19.5744629 L130.116089,19.5744629 L130.116089,23.118927 Z M32.4505615,80.5229492 C32.4857179,80.2182602 32.584686,79.2060581 32.6315613,78.5322266 C32.6784365,77.8583951 32.7310788,77.0732467 32.7838135,76.1767578 C32.8365481,75.280269 32.8846433,74.3076224 32.9315186,73.2587891 C32.9783938,72.2099557 33.0268552,71.1464896 33.0737305,70.1035156 C33.1791997,67.6542846 33.2998347,64.4671777 33.405304,61.5491943 L38.7358398,61.5491943 L43.2958984,74.93573 L47.8728638,61.5491943 L53.0879517,61.5649414 C53.2168586,64.4829247 53.3798822,67.6718628 53.5087891,70.1210938 C53.5556643,71.1640677 53.6083981,72.2099557 53.6669922,73.2587891 C53.7255862,74.3076224 53.7735593,75.280269 53.8321533,76.1767578 C53.8907474,77.0732467 53.9611203,77.8583951 54.0197144,78.5322266 C54.0783084,79.2060581 54.203552,80.1863388 54.2504272,80.4910278 L50.1920166,80.4910278 L49.7393799,67.1837463 L45.1415405,80.5229492 L41.4585266,80.5229492 L36.861908,67.1837463 L36.4941101,80.5229492 L32.4505615,80.5229492 Z M79.579895,71.9797363 C79.6150514,73.0109915 79.7788682,73.4023399 80.065979,74.1640625 C80.3530898,74.9257851 80.6448034,75.2680029 81.1428528,75.7660522 C81.6409021,76.2641016 82.0766873,76.4845874 82.7505188,76.7306824 C83.4243503,76.9767774 83.8779257,77.0281982 84.6748047,77.0281982 C85.8115291,77.0281982 86.9247992,76.8977064 88.0146484,76.6398926 C89.1044976,76.3820788 90.5811103,75.6158785 91.6592407,74.9596252 L92.1560059,78.9718933 C91.534909,79.2883011 90.3876983,79.8124989 89.7900391,80.0351563 C89.1923798,80.2578136 88.5947296,80.4024041 87.9970703,80.5430298 C87.3994111,80.6836555 86.7929718,80.7825314 86.1777344,80.8469849 C85.5624969,80.9114383 84.7545505,80.9389343 84.0748596,80.9389343 C82.949854,80.9389343 81.761968,80.6756611 80.7424316,80.2830811 C79.7228953,79.890501 78.6891518,79.1931191 77.9157104,78.4255371 C77.1422691,77.6579551 76.427462,76.4764766 75.9704285,75.3397522 C75.5133949,74.2030278 75.3004761,72.7988356 75.3004761,71.2988281 C75.3004761,69.8456959 75.5024089,68.428076 75.894989,67.2503357 C76.2875691,66.0725954 76.9188501,64.8667034 77.6454163,64.0288086 C78.3719824,63.1909138 79.4755197,62.3775047 80.5184937,61.9263306 C81.5614676,61.4751564 82.9345638,61.2130737 84.2353516,61.2130737 C85.1962939,61.2130737 86.2377893,61.3595264 86.9760742,61.5880432 C87.7143592,61.81656 88.5324985,62.2452983 89.0715637,62.6495972 C89.6106289,63.0538961 90.1102887,63.594968 90.4735718,64.1340332 C90.8368548,64.6730984 91.2516163,65.5449188 91.4684143,66.1660156 C91.6852123,66.7871125 91.8014217,67.4345669 91.8951721,68.1083984 C91.9889226,68.7822299 92.0341187,69.4472623 92.0341187,70.1035156 L92.0341187,70.7890625 C92.0341187,71.0820327 92.0111085,71.815673 91.9993896,71.9797363 L79.579895,71.9797363 Z M87.8557739,68.5101318 C87.775116,67.7778015 87.6874764,67.5412131 87.4937134,67.0227661 C87.2999504,66.5043191 86.823995,65.9606836 86.6808472,65.8153992 C86.5376993,65.6701148 86.1631472,65.3617654 85.5480042,65.1344299 C84.9328611,64.9070944 84.6044954,64.8647461 83.9716797,64.8647461 C82.6826107,64.8647461 81.7594299,65.2819824 81.1019897,65.8967285 C80.4445496,66.5114746 80.0446167,67.442688 79.7987976,68.5101318 L87.8557739,68.5101318 Z M130.430222,61.5612793 C129.973188,62.1472197 128.966051,63.4456003 128.649643,63.861618 C128.333235,64.2776357 128.058503,64.6355879 127.80069,64.9812927 C127.542876,65.3269976 127.280763,65.6816085 127.052246,66.0097351 C126.823729,66.3378617 126.601579,66.6564616 126.320328,67.0549011 L123.612671,71.1230469 L126.366928,74.9542694 C126.683336,75.3995841 126.933348,75.7366928 127.167725,76.0472412 C127.402101,76.3577896 127.709044,76.7660811 127.966858,77.0942078 C128.224672,77.4223344 128.602965,77.8999003 128.913513,78.3100586 C129.224062,78.7202169 130.124753,79.8974578 130.605225,80.5185547 L125.223145,80.5124512 L120.867188,74.3716431 L116.565979,80.5124512 L111.234741,80.5124512 C111.715212,79.8796355 112.523253,78.8212302 112.851379,78.3934937 C113.179506,77.9657571 113.64511,77.3540666 113.897064,77.0142212 C114.149019,76.6743757 114.385833,76.3519302 114.602631,76.0472412 C114.819429,75.7425522 115.077666,75.3818379 115.347198,74.9951172 L118.315002,70.6835938 L115.503906,66.8164062 C115.210936,66.4062479 114.942689,66.0400407 114.702454,65.7177734 C114.462218,65.3955062 114.204652,65.0615252 113.93512,64.7158203 C113.665587,64.3701155 113.350466,63.9892599 113.016479,63.5732422 C112.682493,63.1572245 111.854556,62.1472197 111.374084,61.5612793 L116.720581,61.5612793 L121.043945,67.5194092 L125.100098,61.5612793 L130.430222,61.5612793 Z" id="м-а-т-м-е-х"></path>
        </g>
    </g>
</svg>